<svg width="17" height="15" viewBox="0 0 17 15" fill="none" xmlns="http://www.w3.org/2000/svg">
<path d="M2.76278 0.117188H13.147V14.8838H11.6227V8.11973H11.6078C11.4393 6.25031 9.8682 4.78534 7.95491 4.78534C6.04162 4.78534 4.47049 6.25031 4.30203 8.11973H4.28708V14.8838H2.76278V0.117188Z" fill="#8B49F7"/>
<path d="M0 2.21309L0.619245 4.309H1.14322V12.7879C0.880144 12.7879 0.666879 13.0012 0.666879 13.2642V13.8358H0.57161C0.308534 13.8358 0.0952683 14.0491 0.0952683 14.3122V14.8838H5.4303V14.3122C5.4303 14.0491 5.21703 13.8358 4.95396 13.8358H4.85869V13.2642C4.85869 13.0012 4.64542 12.7879 4.38235 12.7879H3.81074V2.21309H0Z" fill="#8B49F7"/>
<path d="M11.718 12.7879C11.4549 12.7879 11.2417 13.0012 11.2417 13.2642V13.8358H11.1464C10.8833 13.8358 10.6701 14.0491 10.6701 14.3122V14.8838H16.0051V14.3122C16.0051 14.0491 15.7918 13.8358 15.5288 13.8358H15.4335V13.2642C15.4335 13.0012 15.2202 12.7879 14.9571 12.7879V4.309H15.4811L16.1004 2.21309H12.2896V12.7879H11.718Z" fill="#8B49F7"/>
</svg>
