<svg xmlns="http://www.w3.org/2000/svg" version="1.0" width="32.000000pt" height="32.000000pt" viewBox="0 0 371.000000 354.000000" preserveAspectRatio="xMidYMid meet">
<metadata>
Created by potrace 1.16, written by Peter Selinger 2001-2019
</metadata>
<g transform="translate(0.000000,354.000000) scale(0.100000,-0.100000)" fill="#000000" stroke="none">
<path d="M1655 3093 c-167 -21 -348 -81 -499 -164 -133 -74 -206 -128 -312 -235 -212 -213 -340 -474 -385 -783 -18 -125 -6 -359 25 -491 128 -557 556 -950 1131 -1041 118 -19 351 -16 460 5 251 48 467 148 660 306 85 69 135 123 207 221 203 277 290 578 267 919 -17 244 -85 441 -226 655 -175 264 -396 437 -690 539 -159 55 -292 76 -463 74 -80 0 -158 -3 -175 -5z m733 -440 c-3 -156 -5 -172 -29 -223 -73 -155 -225 -224 -579 -264 -102 -12 -105 -13 -102 -36 5 -43 46 -111 120 -198 264 -313 307 -377 337 -504 19 -79 19 -213 1 -300 -23 -105 -61 -175 -140 -254 -114 -113 -244 -165 -417 -165 -148 0 -251 41 -333 131 -64 71 -81 120 -81 235 0 93 2 105 33 167 62 126 200 220 375 254 72 14 100 15 155 7 139 -22 241 -83 302 -180 15 -23 30 -40 34 -36 13 13 5 113 -14 174 -26 86 -70 149 -233 338 -76 88 -153 186 -172 217 l-35 58 1 160 c1 175 8 208 53 256 43 46 76 59 230 91 281 58 385 109 416 204 10 31 15 35 47 35 l35 0 -4 -167z"/>
</g>
</svg>